<?xml version="1.0"?>
<svg version="1.1" xmlns="http://www.w3.org/2000/svg" width="400px" height="200px" style=""><path fill="#" d="M189.98,178.84l0-8.76l14.6-2.92l0-78.84l-18.98,0l-3.65,14.6l-9.49,0l0-26.28l79.57,0l0,26.28l-9.49,0l-3.65-14.6l-18.98,0l0,78.84l14.6,2.92l0,8.76l-44.53,0z"/><path fill="#" d="M243.6904296875,128.2802734375q0.095703125,0.095703125,0.095703125,0.287109375q0,0.2392578125-0.95703125,1.1962890625q-0.478515625,0.3828125-0.478515625,0.57421875q0,0.095703125,0.095703125,0.3349609375t0.095703125,0.4306640625q0.095703125,0.287109375,0.095703125,1.1005859375l0,1.3876953125l0,0.669921875q0.0478515625,0,0.1435546875-0.0478515625t0.1435546875-0.0478515625q0.3828125,0,0.3828125,0.3828125l0,0.19140625q0,0.095703125-0.1435546875,0.2392578125t-0.287109375,0.2392578125l-0.1435546875,0.1435546875q0.19140625,0.95703125,0.19140625,1.72265625l0,0.6220703125q0,1.1005859375-0.19140625,1.8662109375q-0.0478515625,0.287109375-0.095703125,1.36376953125t-0.287109375,1.55517578125q-0.095703125,0.2392578125-0.50244140625,0.64599609375t-0.50244140625,0.55029296875q0,0.287109375-0.478515625,1.244140625q-0.095703125,0.7177734375-0.88525390625,1.7705078125t-0.88525390625,1.2919921875q-0.095703125,0.19140625-0.19140625,0.19140625l0,0.478515625q0,0.765625-0.57421875,1.1962890625q-1.1484375,0.765625-2.48828125,0.95703125q0.095703125,0.19140625,0.095703125,0.478515625q0,1.4833984375-2.3447265625,3.0625q-0.669921875,0.669921875-1.5791015625,0.669921875l-0.19140625,0q-0.3349609375,0-0.95703125,0.64599609375t-1.1962890625,0.64599609375q-0.3828125,0.0478515625-0.98095703125-0.4306640625t-0.78955078125-0.478515625l-0.19140625,0q-0.2392578125,0.1435546875-0.7177734375,0.45458984375t-0.7177734375,0.45458984375q-0.3828125,0.19140625-0.6220703125,0.19140625q-0.095703125,0-0.2392578125-0.0478515625t-0.2392578125-0.0478515625q-0.3349609375,0.095703125-0.57421875,0.5263671875t-0.57421875,0.5263671875q-0.5263671875,0-0.7177734375-0.095703125q-0.3349609375,0.3349609375-0.57421875,0.4306640625l-0.478515625,0q-0.3349609375,0-0.5263671875,0.095703125l-0.287109375,0l-0.3828125,0q-0.19140625,0-0.57421875,0.19140625t-0.7177734375,0.19140625l-0.287109375,0q-0.287109375,0.19140625-0.765625,0.19140625q-0.2392578125,0-1.1962890625-0.19140625q-0.287109375,0-1.244140625-0.19140625l-0.287109375,0l-0.3349609375,0q-0.0478515625,0-0.21533203125-0.0478515625t-0.26318359375-0.0478515625q-0.1435546875,0-0.50244140625,0.0478515625t-0.55029296875,0.0478515625q-0.2392578125,0-0.6220703125-0.19140625q-0.287109375-0.095703125-0.669921875-0.095703125q-0.57421875,0-0.861328125,0.19140625q-0.287109375,0.095703125-0.7177734375,0.095703125q-0.3828125,0-1.052734375-0.19140625t-0.9091796875-0.2392578125q-1.1484375-0.095703125-3.22998046875-0.765625t-2.41650390625-0.765625q-1.7705078125-0.4306640625-2.583984375-0.9091796875q-1.7705078125-0.287109375-2.3447265625-0.765625q-0.7177734375-0.2392578125-1.5791015625-1.1005859375q-0.861328125-0.287109375-1.244140625-0.861328125q-0.2392578125-0.095703125-1.2919921875-0.9091796875q-0.1435546875,0.1435546875-0.3828125,0.6220703125t-0.669921875,0.765625q0.19140625,0.095703125,0.19140625,0.287109375t-0.7177734375,0.9091796875q-0.1435546875,0.0478515625-0.478515625,0.765625q-0.287109375,0.4306640625-1.17236328125,0.8134765625t-1.55517578125,0.3828125q-0.095703125,0-0.26318359375-0.0478515625t-0.21533203125-0.0478515625l-0.2392578125,0q-0.1435546875,0-0.45458984375,0.1435546875t-0.50244140625,0.1435546875q-0.0478515625,0-0.1435546875-0.0478515625t-0.1435546875-0.0478515625q-0.1435546875,0-1.2919921875-0.287109375q-0.19140625,0-0.55029296875,0.16748046875t-0.59814453125,0.21533203125q-0.287109375,0.0478515625-0.45458984375-0.31103515625t-0.26318359375-0.40673828125q-0.9091796875,0.1435546875-1.3876953125-0.50244140625t-0.478515625-1.65087890625q0-0.57421875,0.095703125-0.861328125q0-0.0478515625,0.0478515625-0.21533203125t0.0478515625-0.26318359375q0-0.19140625-0.095703125-0.6220703125t-0.095703125-0.669921875q0-0.0478515625,0.0478515625-0.19140625t0.0478515625-0.19140625q-0.095703125-0.287109375-0.095703125-0.765625q0-0.287109375,0.0478515625-0.95703125t0.0478515625-1.0048828125l0-0.5263671875q-0.095703125,0.095703125-0.3828125,0.095703125q-0.478515625,0-0.478515625-0.478515625q0-0.19140625,0.095703125-0.287109375q0.19140625-0.19140625,0.765625-0.57421875q-0.095703125-0.19140625-0.095703125-0.8134765625q-0.3349609375-0.9091796875-0.57421875-2.8232421875q0-2.1533203125,0.3828125-3.158203125q-0.19140625-0.57421875-0.19140625-1.33984375q0-0.3349609375,0.0478515625-1.0048828125t0.0478515625-0.95703125q-0.095703125,0.095703125-0.287109375,0.095703125q-0.287109375,0-0.287109375-0.478515625q0-0.9091796875,0.287109375-1.1962890625q0.19140625-0.3828125,0.19140625-1.3876953125l0-1.052734375q0-0.7177734375,0.095703125-1.0048828125l0-0.19140625q0-1.3876953125,1.7705078125-1.9619140625q0.19140625-0.095703125,0.478515625-0.095703125l1.0048828125,0l0.478515625,0l0.287109375,0q0.5263671875,0,1.1005859375,0.19140625q1.7705078125,0,2.6318359375,0.095703125q0.2392578125,0,0.861328125-0.0478515625t0.9091796875-0.0478515625q1.2919921875,0,1.7705078125,0.6220703125q0.5263671875,0.5263671875,1.244140625,3.7802734375q0.95703125-0.478515625,1.2919921875-0.478515625q0.287109375,0,0.287109375,0.287109375q0,0.3349609375-0.095703125,0.4306640625q-0.0478515625,0.19140625-0.55029296875,0.59814453125t-0.50244140625,0.55029296875q0.287109375,0.6220703125,0.478515625,1.4833984375q0.287109375,0.4306640625,0.59814453125,1.435546875t0.45458984375,1.2919921875q0.2392578125,0.1435546875,0.88525390625,0.26318359375t1.07666015625,0.3349609375t0.4306640625,0.59814453125q0,0.2392578125-0.3349609375,0.765625q0.1435546875,0.2392578125,1.1962890625,1.2919921875q0.287109375,0.19140625,0.861328125,0.765625q0.095703125,0.0478515625,0.40673828125,0.2392578125t0.57421875,0.35888671875t0.40673828125,0.31103515625l0.19140625,0q0.1435546875,0,0.40673828125-0.16748046875t0.40673828125-0.16748046875l0.095703125,0q0.3828125,0.1435546875,0.3828125,0.4306640625t-0.19140625,0.478515625q0.7177734375,0.3349609375,2.2490234375,0.57421875t2.2490234375,0.57421875q0.287109375,0.19140625,1.12451171875,0.50244140625t1.12451171875,0.50244140625q0.287109375,0.095703125,0.765625,0.095703125l0.7177734375,0l0.19140625,0q0.5263671875,0,1.8662109375-0.57421875q0.19140625-0.095703125,0.669921875-0.095703125l0.861328125,0l0.5263671875,0q0.3349609375-0.095703125,0.98095703125-0.1435546875t0.98095703125-0.1435546875q0.0478515625,0,0.16748046875-0.07177734375t0.21533203125-0.07177734375q0.5263671875,0,1.3876953125,0.4306640625q0.095703125-0.0478515625,0.35888671875-0.07177734375t0.50244140625-0.11962890625q0.19140625-0.095703125,0.5263671875-0.31103515625t0.5263671875-0.31103515625l0.287109375-0.1435546875l0.287109375-0.1435546875t0.2392578125-0.1435546875t0.21533203125-0.16748046875t0.11962890625-0.19140625t0.0478515625-0.26318359375q0-0.4306640625,0.4306640625-0.78955078125t0.478515625-0.59814453125q0.0478515625-0.3828125,0.478515625-0.74169921875t0.478515625-0.55029296875q0.0478515625-0.095703125,0.07177734375-0.26318359375t0.07177734375-0.31103515625t0.1435546875-0.287109375q0-0.5263671875,0.287109375-1.3876953125q0-0.095703125-0.0478515625-0.35888671875t-0.0478515625-0.40673828125l0-0.19140625q-0.1435546875-0.3349609375-0.287109375-1.17236328125t-0.19140625-1.07666015625q-0.0478515625-0.1435546875-0.1435546875-0.31103515625t-0.26318359375-0.35888671875t-0.287109375-0.287109375t-0.3828125-0.287109375t-0.31103515625-0.2392578125q-0.2392578125-0.095703125-1.0048828125-0.31103515625t-1.1484375-0.45458984375q-0.095703125,0-0.478515625-0.1435546875t-0.57421875-0.1435546875t-0.478515625,0.19140625t-0.4306640625,0.19140625l-0.19140625,0q-0.287109375,0-0.478515625-0.19140625q0-0.19140625-0.095703125-0.19140625q-0.19140625,0-0.3828125,0.19140625l-0.3828125,0q-0.9091796875,0-1.1962890625-0.095703125q-0.669921875-0.19140625-0.669921875-0.9091796875q0-0.287109375,0.3828125-0.287109375l0.19140625,0q0.2392578125,0.0478515625,0.3828125,0.2392578125q0.0478515625,0.0478515625,0.095703125,0.0478515625q0.19140625,0,0.3828125-0.095703125q-0.3828125-0.2392578125-1.1005859375-0.287109375t-0.95703125-0.095703125q-0.1435546875-0.095703125-0.9091796875-0.287109375t-0.861328125-0.287109375q-1.9140625-0.19140625-2.9189453125-0.5263671875q-0.19140625-0.0478515625-0.669921875-0.07177734375t-0.8134765625-0.095703125t-0.478515625-0.31103515625q-0.287109375-0.0478515625-0.861328125-0.095703125t-0.8134765625-0.095703125q-0.3828125,0.0478515625-1.052734375-0.21533203125t-1.41162109375-0.6220703125t-1.02880859375-0.45458984375q-0.57421875-0.287109375-2.392578125-0.287109375q-0.19140625,0-0.6220703125,0.0478515625t-0.6220703125,0.0478515625l-0.287109375,0q-0.19140625-0.0478515625-0.35888671875-0.21533203125t-0.26318359375-0.16748046875t-0.287109375,0.095703125q-0.3828125,0.19140625-0.478515625,0.19140625q-0.3349609375,0-0.478515625-0.478515625l0-0.3828125q0-0.1435546875,0.0478515625-0.2392578125t0.0478515625-0.1435546875q0-0.095703125-0.3828125-0.3349609375q-1.1484375-0.57421875-1.7705078125-0.57421875q-0.765625,0.1435546875-2.48828125-0.861328125q-0.3349609375-0.1435546875-1.052734375-0.59814453125t-1.1005859375-0.59814453125q-1.72265625,0.57421875-1.9619140625,0.57421875q-0.095703125,0-0.2392578125-0.0478515625t-0.2392578125-0.0478515625q-0.669921875-0.1435546875-0.669921875-0.57421875t0.95703125-1.1484375q-2.201171875-1.435546875-3.3017578125-2.966796875q-0.4306640625,0.287109375-0.6220703125,0.287109375q-0.287109375,0-0.287109375-0.765625q0-0.9091796875-0.095703125-1.1005859375q-0.4306640625-0.4306640625-0.669921875-1.9619140625q-0.765625-2.0576171875-0.765625-4.40234375q-0.2392578125-0.6220703125-0.2392578125-1.7705078125q-0.0478515625-0.57421875-0.1435546875-0.6220703125q-0.1435546875,0-0.3349609375-0.3349609375q0-0.0478515625-0.0478515625-0.095703125t-0.0478515625-0.095703125q0-0.2392578125,0.57421875-0.8134765625l0-0.19140625l0-0.3828125l0-0.19140625q0-0.2392578125,0.0478515625-0.669921875t0.0478515625-0.6220703125q0-0.478515625,0.2392578125-1.435546875q0-0.7177734375,0.287109375-1.0048828125q0-0.095703125-0.1435546875-0.35888671875t-0.1435546875-0.40673828125q0.0478515625-0.2392578125,0.287109375-0.3828125t0.287109375-0.19140625q0.0478515625-0.1435546875,0.095703125-0.35888671875t0.095703125-0.35888671875q0-0.095703125,0.095703125-0.45458984375t0.19140625-0.59814453125q0-1.052734375,0.287109375-1.7705078125q0.095703125-0.2392578125,0.31103515625-0.59814453125t0.31103515625-0.59814453125q0.19140625-0.3828125,0.765625-0.765625q0.19140625-0.1435546875,0.59814453125-0.64599609375t0.88525390625-0.64599609375l0-0.287109375q0-1.1005859375,0.19140625-1.2919921875q0.3349609375-0.5263671875,1.33984375-1.244140625t1.1005859375-0.8134765625q0.1435546875-0.19140625,0.31103515625-0.35888671875t0.35888671875-0.3349609375t0.287109375-0.26318359375q0.861328125-0.669921875,1.3876953125-0.861328125q0.19140625-0.1435546875,0.6220703125-0.55029296875t0.765625-0.55029296875q0.8134765625-0.4306640625,2.4404296875-0.95703125t1.8662109375-0.6220703125q0.095703125-0.095703125,0.3828125-0.095703125q0.4306640625,0,0.57421875,0.3828125q0.7177734375-0.19140625,0.7177734375-0.287109375q0.0478515625-0.095703125,0.21533203125-0.31103515625t0.287109375-0.3349609375t0.26318359375-0.287109375t0.3349609375-0.2392578125t0.4306640625-0.07177734375l0.7177734375,0.19140625l1.244140625-0.6220703125q0.0478515625,0,0.21533203125-0.0478515625t0.21533203125-0.0478515625q0.287109375,0,0.765625,0.3349609375q0.5263671875-0.7177734375,1.1962890625-0.7177734375q0.2392578125,0,0.7177734375-0.1435546875t0.7177734375-0.1435546875l0.19140625,0q0.6220703125,0,1.1005859375,0.478515625q0.095703125-0.095703125,0.57421875-0.095703125l0.287109375,0l0.19140625,0q0.19140625,0,0.59814453125,0.095703125t0.59814453125,0.095703125q0.0478515625,0,0.19140625-0.0478515625t0.19140625-0.0478515625l0.19140625,0q1.0048828125,0,1.3876953125,0.19140625q0.19140625-0.095703125,0.478515625-0.095703125q0.3349609375,0,1.052734375,0.21533203125t1.0048828125,0.21533203125q0.3349609375,0,0.6220703125-0.1435546875q0.095703125-0.095703125,0.478515625-0.095703125q0.5263671875,0,1.244140625,0.2392578125q1.1962890625,0,1.7705078125,0.287109375q0.765625,0.19140625,0.9091796875,0.19140625q0.287109375,0,0.861328125-0.19140625q0.0478515625,0,0.16748046875-0.0478515625t0.21533203125-0.0478515625q0.9091796875,0,0.9091796875,0.3828125q0,0.19140625-0.287109375,0.478515625l2.0576171875,0.3828125q0.095703125,0.095703125,0.3828125,0.095703125l0.478515625,0q0.287109375,0,0.287109375,0.287109375l0,0.2392578125l0,0.095703125q0,0.1435546875,0.07177734375,0.21533203125t0.2392578125,0.16748046875t0.26318359375,0.19140625q0.3349609375,0.19140625,1.052734375,0.83740234375t1.1484375,0.83740234375q0.2392578125,0.0478515625,0.3828125,0.2392578125q0.0478515625,0.0478515625,0.095703125,0.0478515625l0.3828125-0.19140625q0.2392578125-0.095703125,0.3828125-0.21533203125t0.26318359375-0.26318359375t0.16748046875-0.2392578125t0.19140625-0.31103515625t0.19140625-0.35888671875q-0.0478515625-0.95703125,0.669921875-1.41162109375t1.7705078125-0.45458984375q0.1435546875,0,0.35888671875,0.0478515625t0.31103515625,0.0478515625l0.669921875,0q0.5263671875,0,0.7177734375-0.095703125l0.861328125-0.287109375l0.095703125,0q0.3349609375,0.0478515625,0.57421875,0.16748046875t0.3349609375,0.11962890625q0.0478515625,0,0.11962890625-0.02392578125t0.2392578125-0.07177734375t0.31103515625-0.095703125q0.3828125-0.19140625,0.95703125-0.19140625q0.7177734375,0,1.0048828125,0.095703125q0.6220703125,0.0478515625,1.052734375,0.57421875t0.4306640625,1.1005859375q0,0.287109375-0.19140625,0.669921875q0,1.53125-0.3349609375,2.3447265625l0.3349609375,2.3447265625q0.19140625,1.33984375,0.19140625,2.201171875q0,0.765625-0.19140625,1.72265625l0,0.4306640625q0,0.6220703125,0.1435546875,1.9140625t0.1435546875,1.9619140625q0,0.9091796875-0.095703125,1.2919921875q0.095703125,0.19140625,0.095703125,0.8134765625q0,0.478515625-0.095703125,0.669921875q0.095703125,0.3349609375,0.21533203125,0.40673828125t0.31103515625,0.095703125t0.3349609375,0.26318359375l0.095703125,0.19140625q0,0.287109375-0.55029296875,0.7177734375t-0.50244140625,0.765625q0.0478515625,0,0.1435546875-0.0478515625t0.1435546875-0.0478515625q0.478515625,0,0.478515625,0.478515625q0,0.5263671875-0.3828125,0.7177734375t-0.3828125,0.478515625l0,0.478515625q0.19140625-0.19140625,0.478515625-0.19140625q0.3828125,0,0.3828125,0.3828125q0,0.57421875-0.57421875,1.0048828125q-0.3828125,0.3828125-0.3828125,0.861328125l0,0.478515625q0,0.57421875-0.3349609375,0.9091796875q-0.9091796875,0.765625-2.2490234375,0.765625q-1.1005859375,0-2.0576171875-0.478515625q-0.765625,0.19140625-1.1484375,0.19140625q-0.9091796875,0-2.0576171875-0.19140625q-0.095703125,0.095703125-0.287109375,0.095703125l-0.4306640625,0l-0.19140625,0q-0.095703125,0.0478515625-0.5263671875,0.31103515625t-0.7177734375,0.35888671875l-0.19140625,0q-0.5263671875,0-0.5263671875-0.478515625q0-0.287109375,0.19140625-0.3828125q-1.53125,0-1.53125-2.87109375q0-0.669921875,0.19140625-1.244140625q-0.095703125-1.052734375-0.9091796875-3.158203125q-0.5263671875,0.3828125-1.052734375,0.3828125q-0.287109375,0-0.287109375-0.19140625q0-0.478515625,0.861328125-1.052734375q-0.1435546875-0.1435546875-0.26318359375-0.31103515625t-0.2392578125-0.3828125t-0.16748046875-0.31103515625q-0.2392578125-0.4306640625-0.78955078125-1.1005859375t-0.69384765625-0.861328125q-1.4833984375-0.861328125-2.1533203125-1.8662109375q-0.4306640625-0.287109375-0.57421875-0.287109375q-0.0478515625,0-0.6220703125,0.4306640625q-0.095703125,0.095703125-0.287109375,0.095703125q-0.3828125,0-0.3828125-0.5263671875q0-0.3349609375,0.287109375-0.478515625q-0.765625-0.2392578125-1.9619140625-1.17236328125t-1.6748046875-1.17236328125q-1.9619140625-0.3828125-2.1533203125-0.57421875q-0.19140625,0.095703125-0.765625,0.095703125q-0.3828125,0-1.17236328125-0.1435546875t-1.17236328125-0.1435546875q-0.095703125,0-0.287109375,0.0478515625t-0.287109375,0.0478515625q-1.1484375,0.3828125-1.1962890625,0.3828125q-0.4306640625,0-0.57421875-0.287109375q0-0.0478515625-0.26318359375,0.0478515625t-0.57421875,0.21533203125t-0.45458984375,0.11962890625q-0.3349609375-0.0478515625-1.07666015625,0.35888671875t-1.17236328125,0.40673828125q-0.19140625,0-0.57421875-0.19140625q-0.95703125,0.478515625-1.8662109375,0.478515625q-0.3349609375,0.0478515625-0.78955078125,0.31103515625t-0.93310546875,0.64599609375t-0.7177734375,0.5263671875q-1.9140625,1.2919921875-1.9619140625,1.3876953125q-0.7177734375,2.0576171875-0.7177734375,3.0146484375q0,1.052734375,0.6220703125,2.1533203125q0.5263671875-0.3828125,0.861328125-0.3828125q0.287109375,0,0.287109375,0.478515625q0,0.1435546875-0.0478515625,0.6220703125t-0.0478515625,0.669921875l0,0.19140625q0.19140625,0.287109375,1.02880859375,0.64599609375t1.02880859375,0.55029296875q0.57421875,0.1435546875,2.12939453125,0.69384765625t2.46435546875,0.64599609375q0.3828125-0.0478515625,1.244140625,0.26318359375t1.244140625,0.26318359375q0.1435546875,0,0.478515625,0.1435546875t0.478515625,0.1435546875q0.7177734375,0.2392578125,0.861328125,0.3828125q0.19140625-0.095703125,0.9091796875-0.095703125q0.8134765625,0.3349609375,2.70361328125,0.59814453125t2.79931640625,0.64599609375q0.2392578125,0,0.861328125,0.2392578125t0.765625,0.3828125q0.19140625,0.0478515625,0.64599609375,0.095703125t0.64599609375,0.095703125l0.3828125,0q0.3349609375,0,1.02880859375,0.16748046875t0.83740234375,0.21533203125q1.3876953125,0,2.7275390625,0.669921875q0.95703125,0.095703125,3.349609375,1.8662109375q1.052734375,0.095703125,2.8232421875,1.0048828125q0.287109375,0,0.6220703125,0.26318359375t0.478515625,0.31103515625q1.244140625-0.765625,1.5791015625-0.861328125q0.287109375-0.0478515625,0.4306640625,0.11962890625t0.1435546875,0.45458984375q0,0.19140625-0.19140625,0.57421875q-0.095703125,0.19140625-0.19140625,0.35888671875t-0.1435546875,0.2392578125t-0.0478515625,0.11962890625q0,0.1435546875,0.3828125,0.3828125q0.478515625,0.287109375,1.50732421875,0.7177734375t1.50732421875,0.7177734375l0.2392578125,0.1435546875q0.19140625,0,0.50244140625-0.287109375t0.55029296875-0.3349609375q0.0478515625,0,0.095703125-0.0478515625t0.095703125-0.0478515625q0.478515625,0,0.478515625,0.57421875l0,0.3349609375q0,0.0478515625,0.0478515625,0.0478515625q0.1435546875,0.0478515625,0.19140625,0.2392578125q0.095703125,0.095703125,0.095703125,0.287109375q0,0.287109375-0.26318359375,0.64599609375t-0.26318359375,0.40673828125l0,0.095703125q0.0478515625,0.095703125,0.21533203125,0.31103515625t0.21533203125,0.31103515625q1.244140625,1.1484375,1.72265625,4.78515625q0.7177734375-0.478515625,1.1005859375-0.478515625q0.4306640625,0,0.57421875,0.3828125z M240.388671875,131.9169921875q0-0.19140625-0.095703125-0.3828125q-0.765625,0.6220703125-2.27294921875,1.65087890625t-2.08154296875,1.45947265625q0.095703125-0.0478515625,1.41162109375-0.669921875t2.1533203125-1.1484375t0.88525390625-0.9091796875z M237.708984375,142.779296875l0.6220703125-0.287109375q-0.19140625,0-0.6220703125,0.287109375q0.095703125-0.0478515625,0.69384765625-0.26318359375t0.93310546875-0.45458984375t0.4306640625-0.5263671875q-0.478515625,0.3349609375-2.0576171875,1.244140625z M228.42578125,138.85546875q0.861328125-0.669921875,2.6796875-1.93798828125t2.6796875-1.89013671875q-3.0146484375,2.10546875-4.2109375,2.775390625q-0.95703125,0.57421875-1.435546875,0.765625q-0.4306640625,0.287109375-0.4306640625,0.3828125l0,0.5263671875q0.095703125-0.095703125,0.35888671875-0.31103515625t0.35888671875-0.31103515625z M220.578125,149.765625l-0.9091796875,0.57421875l2.775390625-1.7705078125q-0.478515625,0.3349609375-1.8662109375,1.1962890625q-5.0244140625,3.3017578125-7.46484375,5.359375q13.015625-8.326171875,20.48046875-12.6328125q0.6220703125-0.3349609375,2.5361328125-1.3876953125t2.966796875-1.53125q0.2392578125-0.095703125,0.69384765625-0.31103515625t0.69384765625-0.31103515625q0.287109375-0.1435546875,0.287109375-1.435546875q0-0.2392578125-0.0478515625-0.5263671875l-0.0478515625-0.287109375q-18.3271484375,11.8671875-20.09765625,13.0634765625z M225.267578125,144.8369140625l2.775390625-1.6748046875q-0.0478515625,0.0478515625-0.11962890625,0.095703125t-0.31103515625,0.19140625l-0.478515625,0.287109375t-0.5263671875,0.31103515625t-0.50244140625,0.31103515625t-0.4306640625,0.26318359375t-0.31103515625,0.16748046875l-0.095703125,0.0478515625q4.115234375-2.4404296875,9.5224609375-5.7900390625q0.6220703125-0.3828125,1.89013671875-1.17236328125t1.93798828125-1.17236328125l0.669921875-0.3349609375t0.93310546875-0.55029296875t0.35888671875-0.45458984375q-6.986328125,3.3017578125-9.7138671875,5.072265625q-2.5361328125,1.5791015625-4.115234375,2.8232421875q-0.1435546875,0.287109375-0.55029296875,0.55029296875t-0.95703125,0.478515625t-0.74169921875,0.35888671875q0.287109375,0.1435546875,0.287109375,0.478515625q0.095703125-0.0478515625,0.2392578125-0.1435546875t0.2392578125-0.1435546875z M238.3310546875,130.720703125l0.478515625-0.287109375q-0.19140625,0.095703125-0.478515625,0.287109375q0.095703125-0.0478515625,0.35888671875-0.19140625t0.45458984375-0.26318359375t0.40673828125-0.287109375t0.3349609375-0.31103515625t0.07177734375-0.287109375q-0.765625,0.765625-1.626953125,1.33984375z M232.828125,120.6240234375l-0.19140625,0.19140625l0.19140625-0.095703125l0-0.095703125q-1.818359375,1.53125-8.421875,6.3642578125q1.626953125-0.95703125,4.78515625-2.79931640625t4.78515625-2.75146484375q-0.1435546875-0.1435546875-0.59814453125-0.4306640625t-0.55029296875-0.3828125z M238.3310546875,124.4521484375l-0.4306640625,0.287109375q0.095703125,0,0.26318359375-0.11962890625t0.16748046875-0.16748046875q-1.0048828125,0.9091796875-2.966796875,2.583984375t-2.9189453125,2.5361328125q-0.2392578125,0.2392578125-1.02880859375,0.88525390625t-1.17236328125,0.98095703125t-0.9091796875,0.9091796875t-0.8134765625,1.1484375q0.95703125-0.287109375,2.08154296875-0.88525390625t1.89013671875-1.07666015625t2.0576171875-1.36376953125t1.818359375-1.22021484375q0.478515625-0.3349609375,1.50732421875-1.02880859375t1.50732421875-1.02880859375q-0.095703125-0.287109375-0.287109375-1.052734375q-0.095703125-0.2392578125-0.765625-1.3876953125z M214.1181640625,129.0458984375l0.3828125-0.287109375q-0.3828125,0.19140625-0.3828125,0.287109375q0.765625-0.4306640625,2.009765625-1.26806640625t1.5791015625-1.07666015625q-0.1435546875,0.095703125-1.5791015625,0.98095703125t-2.201171875,1.26806640625q0.19140625,0,0.19140625,0.095703125z M216.55859375,124.5478515625l0.765625-0.478515625q-1.244140625,0.669921875-1.244140625,0.765625q0.19140625-0.095703125,0.478515625-0.287109375q0.6220703125-0.3828125,2.46435546875-1.55517578125t2.775390625-1.7705078125t2.3447265625-1.65087890625t2.41650390625-2.0576171875q-0.095703125-0.095703125-0.287109375-0.095703125q-0.478515625,0-1.244140625,0.45458984375t-1.65087890625,1.12451171875t-1.02880859375,0.765625q-3.0146484375,1.9619140625-4.9287109375,3.349609375q-4.4501953125,3.1103515625-7.84765625,5.072265625q0.287109375,0.095703125,0.7177734375,0.095703125q0.287109375,0,0.55029296875-0.095703125t0.3828125-0.16748046875t0.50244140625-0.3349609375t0.5263671875-0.35888671875q4.2587890625-2.7275390625,4.306640625-2.775390625z M227.6123046875,118.18359375q-0.095703125-0.095703125-0.287109375-0.095703125q-0.095703125,0-0.21533203125,0.1435546875t-0.26318359375,0.2392578125q0.19140625-0.095703125,0.669921875-0.095703125l0.287109375,0q0-0.19140625-0.19140625-0.19140625z M223.4013671875,121.341796875l-0.287109375,0.19140625l1.1962890625-0.7177734375q-0.3349609375,0.1435546875-0.9091796875,0.5263671875q-0.7177734375,0.478515625-2.12939453125,1.45947265625t-2.17724609375,1.45947265625q5.93359375-3.2060546875,8.421875-4.9765625q-0.4306640625,0.0478515625-0.861328125,0.19140625t-0.9091796875,0.40673828125t-0.765625,0.4306640625t-0.861328125,0.55029296875z M228.521484375,120.0498046875q-0.095703125,0.095703125-0.095703125,0.19140625q0,0.0478515625,0.287109375-0.19140625q0-0.095703125-0.095703125-0.095703125l-0.095703125,0.095703125q-0.287109375,0.4306640625-0.69384765625,0.8134765625t-1.17236328125,0.95703125t-0.9091796875,0.669921875q0.861328125-0.478515625,2.5361328125-1.45947265625t2.48828125-1.45947265625q-0.861328125-0.287109375-1.0048828125-0.3828125q-0.765625,0.57421875-1.244140625,0.861328125z M223.4013671875,116.4130859375q-0.0478515625,0-0.19140625-0.0478515625t-0.19140625-0.0478515625t-0.11962890625,0.02392578125t-0.11962890625,0.0478515625t-0.11962890625,0.095703125l-0.11962890625,0.11962890625t-0.11962890625,0.1435546875t-0.11962890625,0.16748046875t-0.11962890625,0.19140625t-0.11962890625,0.21533203125q-0.57421875,0.669921875-2.392578125,2.2490234375q-2.9189453125,2.583984375-8.517578125,6.5556640625q1.818359375-1.1005859375,6.5078125-4.37841796875t7.4169921875-4.80908203125q-0.287109375,0-0.88525390625-0.2392578125t-0.78955078125-0.287109375z M208.615234375,121.4375l2.3447265625-1.3876953125q0.0478515625,0-0.57421875,0.35888671875t-1.26806640625,0.74169921875t-0.69384765625,0.3828125l0.19140625-0.095703125q8.0869140625-4.7373046875,10.1923828125-5.7900390625q-0.57421875-0.19140625-0.669921875-0.19140625q-0.19140625,0-0.6220703125,0.287109375q-0.2392578125,0.1435546875-0.765625,0.4306640625t-0.765625,0.4306640625q-2.3447265625,1.53125-5.1201171875,2.966796875q-0.57421875,0.3349609375-2.56005859375,1.4833984375t-2.89501953125,1.6748046875t-2.392578125,1.4833984375t-2.6318359375,1.818359375q0.19140625,0.0478515625,0.69384765625-0.16748046875t0.95703125-0.478515625t1.0048828125-0.6220703125t0.59814453125-0.40673828125q1.052734375-0.5263671875,2.79931640625-1.60302734375t2.17724609375-1.31591796875z M214.2138671875,119.2841796875l-0.19140625,0.19140625l0.19140625-0.19140625q-0.2392578125,0.1435546875-0.69384765625,0.3828125t-0.69384765625,0.3828125q0.3349609375-0.1435546875,1.3876953125-0.765625z M203.1123046875,126.318359375l0.19140625-0.095703125l-0.095703125,0q-0.095703125,0-0.095703125,0.095703125q3.349609375-1.9140625,4.9287109375-3.0146484375q-2.966796875,1.3876953125-5.5986328125,2.9189453125l0.287109375,0q0.287109375,0,0.3828125,0.095703125z M211.4384765625,113.876953125l0.095703125,0l-0.095703125,0q0.2392578125-0.095703125-1.2919921875,1.33984375q0,0.0478515625-0.095703125,0.095703125l-0.1435546875,0.1435546875q-3.158203125,2.201171875-4.7373046875,3.3974609375q-0.2392578125,0.19140625-1.1484375,0.9091796875t-1.26806640625,1.0048828125t-1.12451171875,0.93310546875t-1.1962890625,1.052734375t-1.0048828125,1.0048828125t-1.0048828125,1.17236328125q0.287109375,0.1435546875,1.052734375-0.26318359375t1.6748046875-1.0048828125t1.1005859375-0.69384765625q0.765625-0.478515625,2.36865234375-1.41162109375t2.41650390625-1.41162109375q1.5791015625-0.9091796875,4.71337890625-2.7275390625t4.71337890625-2.6796875q-0.5263671875-0.095703125-1.5791015625-0.19140625t-1.1484375-0.095703125q-0.287109375,0-1.1484375-0.21533203125t-1.1484375-0.35888671875z M208.90234375,113.3984375q-0.19140625,0-0.287109375-0.0478515625q-0.0478515625-0.0478515625-0.095703125-0.0478515625l-0.287109375,0.287109375q-0.2392578125,0.287109375-1.1005859375,0.95703125q-2.6796875,2.296875-3.3017578125,2.775390625q0.3349609375-0.19140625,1.9619140625-1.244140625t2.6796875-1.60302734375t2.10546875-0.88525390625q-0.287109375-0.19140625-1.6748046875-0.19140625z M204.978515625,112.2978515625l-0.095703125,0l0.095703125,0l-1.1484375-0.3828125q-0.19140625,0-0.40673828125,0.1435546875t-0.4306640625,0.3828125t-0.35888671875,0.3349609375q-1.3876953125,1.3876953125-2.8232421875,2.6796875q-3.2060546875,2.87109375-8.134765625,6.7470703125q0.3828125,0.3828125,0.861328125,0.3828125q0.4306640625,0,1.8662109375-0.95703125q1.7705078125-1.052734375,4.306640625-2.775390625q5.5029296875-3.63671875,8.421875-5.837890625q-0.2392578125-0.2392578125-0.478515625-0.2392578125l-0.57421875,0q-0.8134765625-0.4306640625-1.1005859375-0.478515625z M200.86328125,110.623046875l-0.095703125,0l0.095703125,0q-0.9091796875,0-1.9619140625-1.33984375q-1.818359375,1.53125-6.00537109375,4.33056640625t-6.14892578125,4.56982421875l0.095703125,0q0.478515625-0.3349609375,2.0576171875-1.435546875t2.3447265625-1.60302734375t2.0576171875-1.36376953125t2.4404296875-1.4833984375t2.296875-1.1484375q1.052734375-0.5263671875,2.2490234375-0.5263671875q0.765625,0,0.765625,0.5263671875q0,0.2392578125-0.287109375,0.669921875q0.095703125-0.0478515625,0.287109375-0.16748046875t0.35888671875-0.2392578125t0.35888671875-0.26318359375q-0.2392578125-0.095703125-0.9091796875-0.5263671875z M193.5419921875,115.2646484375l0.669921875-0.4306640625l-1.1962890625,0.7177734375q0.1435546875-0.095703125,0.5263671875-0.287109375l1.5791015625-0.78955078125t1.74658203125-0.9091796875t1.50732421875-0.9091796875t1.435546875-1.12451171875q-1.1484375,0.095703125-3.0625,1.3876953125q-2.1533203125,1.1962890625-7.2255859375,4.59375q2.8232421875-1.6748046875,4.01953125-2.2490234375z M196.556640625,114.642578125l-2.1533203125,1.3876953125q0.57421875-0.287109375,2.1533203125-1.3876953125q-0.3349609375,0.19140625-3.13427734375,1.6748046875t-4.18701171875,2.4404296875q0.6220703125-0.19140625,1.31591796875-0.50244140625t1.22021484375-0.59814453125t1.2919921875-0.765625t1.1484375-0.69384765625t1.244140625-0.8134765625t1.1005859375-0.74169921875z M186.2685546875,117.2265625q0-0.0478515625,0.2392578125-0.287109375t0.7177734375-0.57421875t0.98095703125-0.69384765625t1.12451171875-0.765625t1.07666015625-0.69384765625t0.88525390625-0.57421875t0.478515625-0.3349609375q5.4072265625-3.7802734375,6.5556640625-4.8330078125q0-0.095703125-0.095703125-0.19140625q-4.5458984375,3.2060546875-8.23046875,5.4072265625q-2.87109375,1.5791015625-3.828125,1.8662109375q-0.19140625,0.095703125-0.19140625,0.478515625q0,0.3349609375,0.287109375,1.1962890625z M190.0009765625,95.2626953125l0,0.095703125l0-0.095703125q0.19140625,0.3828125,0.19140625,0.57421875q0.19140625-0.19140625,0.59814453125-0.5263671875t0.59814453125-0.5263671875l-0.2392578125,0q-1.1484375,0-1.1484375,0.3828125l0,0.095703125z M205.6005859375,90.333984375l-0.7177734375,0.5263671875l1.0048828125-0.7177734375q-0.095703125,0.095703125-0.287109375,0.19140625q-3.0146484375,1.9619140625-10.431640625,6.603515625q-1.052734375,0.669921875-3.0625,1.89013671875t-3.0146484375,1.84228515625q-0.19140625,0.1435546875-0.861328125,0.478515625t-0.98095703125,0.55029296875t-0.69384765625,0.64599609375t-0.478515625,0.861328125q2.2490234375-1.33984375,6.77099609375-4.115234375t6.77099609375-4.115234375q6.4599609375-3.8759765625,9.953125-6.5556640625l-0.287109375,0l-0.3828125,0q-0.3828125,0-0.765625,0.19140625q-0.3828125,0.287109375-2.5361328125,1.72265625z M213.3046875,88.70703125q-1.818359375,1.052734375-5.47900390625,3.158203125t-5.47900390625,3.2060546875q0.57421875-0.19140625,0.95703125-0.19140625l0.3349609375,0q0.3349609375,0.0478515625,0.6220703125,0.26318359375t0.4306640625,0.21533203125q0.287109375,0,0.57421875-0.19140625q0.6220703125-0.3828125,1.84228515625-1.17236328125t1.89013671875-1.17236328125q3.923828125-2.6796875,5.5029296875-4.2109375q-0.1435546875,0-0.478515625,0.0478515625t-0.5263671875,0.0478515625l-0.19140625,0z M218.7119140625,88.994140625q-0.19140625,0-0.19140625,0.19140625q0.287109375,0,0.287109375-0.19140625l-0.095703125,0z M210.5771484375,94.06640625q-0.0478515625,0-0.095703125,0.0478515625t-0.095703125,0.0478515625q0.861328125-0.287109375,1.052734375-0.287109375q0.1435546875,0,0.5263671875,0.19140625q0.19140625-0.095703125,0.19140625-0.19140625l1.1484375-0.861328125q0.3828125-0.2392578125,1.12451171875-0.78955078125t1.12451171875-0.78955078125q-0.8134765625,0.4306640625-2.46435546875,1.31591796875t-2.51220703125,1.31591796875z M224.0234375,90.4775390625l-0.2392578125,0.19140625l0.2392578125-0.095703125l0-0.095703125q-0.861328125,0.7177734375-1.6748046875,1.53125q1.2919921875-0.95703125,2.2490234375-1.052734375q-0.095703125-0.095703125-0.287109375-0.2392578125t-0.287109375-0.2392578125z M213.9267578125,94.2578125l0.095703125,0l-0.095703125,0q0.3828125-0.19140625,0.478515625-0.287109375q-0.095703125,0-0.287109375,0.11962890625t-0.19140625,0.16748046875z M196.65234375,103.6845703125q0-0.095703125-0.095703125-0.095703125l0,0.095703125l0,0.095703125l0.095703125-0.095703125l0-0.19140625q0-0.8134765625,0.19140625-1.1962890625q-1.8662109375,1.7705078125-5.62255859375,5.3115234375t-5.62255859375,5.3115234375q1.244140625-0.478515625,2.392578125-1.244140625t2.89501953125-2.17724609375t2.12939453125-1.69873046875q0.095703125-0.0478515625,0.78955078125-0.6220703125t1.4833984375-1.052734375t1.26806640625-0.478515625q0.3349609375,0,0.478515625,0.287109375l-0.26318359375-0.78955078125t-0.21533203125-0.98095703125q0-0.3828125,0.095703125-0.478515625z M202.3466796875,96.841796875q0.095703125-0.0478515625,0.2392578125-0.19140625t0.26318359375-0.21533203125t0.26318359375-0.11962890625q-0.1435546875,0.0478515625-0.26318359375,0.11962890625t-0.26318359375,0.21533203125t-0.2392578125,0.19140625z M185.3115234375,106.8427734375q0,0.0478515625,1.435546875-0.765625t2.3447265625-1.3876953125q0.861328125-0.478515625,2.583984375-1.4833984375t2.6318359375-1.4833984375q0.4306640625-0.2392578125,1.26806640625-0.74169921875t1.26806640625-0.74169921875q0.1435546875-0.095703125,0.57421875-0.31103515625t0.69384765625-0.35888671875t0.55029296875-0.3828125t0.3349609375-0.478515625q0.765625-2.0576171875,2.87109375-3.349609375q-5.0244140625,2.9189453125-10.1923828125,5.8857421875q-0.861328125,0.478515625-2.6318359375,1.50732421875t-2.6796875,1.50732421875q-0.478515625,0.2392578125-0.669921875,0.59814453125t-0.2392578125,1.02880859375t-0.1435546875,0.95703125z M185.2158203125,111.8193359375l0.095703125,0l-0.095703125,0q0-0.0478515625,0.78955078125-0.7177734375t0.93310546875-0.765625q0.6220703125-0.669921875,3.63671875-3.3974609375q3.732421875-3.541015625,5.5986328125-5.2158203125q-0.57421875,0.3828125-8.23046875,5.5986328125q-0.8134765625,0.6220703125-2.87109375,1.8662109375q0.1435546875,0.861328125,0.1435546875,1.8662109375l0,0.765625z M185.7900390625,114.73828125q0.765625-0.2392578125,0.765625-0.3828125q0-0.095703125-0.095703125-0.095703125q-0.19140625,0-0.669921875,0.478515625q0.7177734375-0.19140625,1.3876953125-0.50244140625t1.74658203125-1.0048828125t1.17236328125-0.74169921875q3.732421875-2.2490234375,7.65625-4.9765625q-0.5263671875-0.3349609375-0.5263671875-1.1962890625q0,0.4306640625-0.287109375,0.861328125t-0.88525390625,0.88525390625t-1.0048828125,0.7177734375t-1.1005859375,0.64599609375t-0.74169921875,0.4306640625q-0.669921875,0.4306640625-2.36865234375,1.36376953125t-2.94287109375,1.7705078125t-2.10546875,1.74658203125z M217.228515625,94.8798828125l0.2392578125,0t0.16748046875-0.02392578125l0.1435546875-0.0478515625t0.11962890625-0.0478515625t0.1435546875-0.11962890625t0.1435546875-0.11962890625t0.16748046875-0.16748046875t0.16748046875-0.19140625q0.2392578125-0.2392578125,0.8134765625-0.74169921875t0.861328125-0.78955078125q-0.6220703125,0.3349609375-1.7705078125,1.02880859375t-1.7705078125,1.02880859375q0.3828125,0.19140625,0.57421875,0.19140625z M222.8271484375,97.990234375l0-0.095703125l0,0.095703125q0.19140625,0.095703125,1.244140625-0.93310546875t2.32080078125-2.41650390625t1.31591796875-1.435546875q-0.2392578125-0.1435546875-0.83740234375,0.07177734375t-1.41162109375,0.74169921875t-1.50732421875,1.0048828125t-1.435546875,1.052734375t-0.88525390625,0.669921875l-0.19140625,0q-0.57421875,0-0.57421875-0.5263671875q0-0.095703125,0.095703125-0.19140625l0.861328125-1.1484375q0.3349609375-0.4306640625,1.052734375-1.33984375t1.052734375-1.33984375q-1.7705078125,0.861328125-5.1201171875,3.25390625q1.1484375,0.57421875,2.1533203125,1.5791015625q1.818359375,0.9091796875,1.8662109375,0.95703125z M238.3310546875,103.7802734375l0,0.095703125l0-0.095703125q0.0478515625,0.095703125-0.861328125,1.0048828125t-2.17724609375,2.12939453125t-1.31591796875,1.26806640625q0.1435546875-0.0478515625,1.626953125-1.0048828125t2.296875-1.33984375q0.5263671875-0.287109375,0.5263671875-0.669921875q0-0.1435546875-0.0478515625-0.5263671875t-0.0478515625-0.57421875l0-0.287109375z M238.3310546875,106.8427734375q0-0.095703125-1.60302734375,0.93310546875t-3.37353515625,2.201171875t-2.009765625,1.26806640625q0.095703125,0.095703125,0.287109375,0.095703125q0.57421875,0,2.0576171875-1.1005859375q0.57421875-0.3828125,1.60302734375-1.12451171875t1.55517578125-1.12451171875q0.095703125-0.0478515625,0.40673828125-0.21533203125t0.478515625-0.287109375t0.35888671875-0.31103515625t0.2392578125-0.3349609375z M238.091796875,100.1435546875l0,0.095703125l0-0.095703125q-0.8134765625,0.8134765625-3.22998046875,2.8232421875t-3.51708984375,3.349609375q2.8232421875-1.6748046875,4.689453125-2.7275390625q0.6220703125-0.3828125,2.201171875-1.2919921875q0.095703125,0,0.095703125-0.478515625q0-1.1962890625-0.2392578125-1.6748046875z M236.177734375,104.5458984375q-3.158203125,1.9140625-4.7373046875,2.775390625q-0.669921875,0.3349609375-0.669921875,0.669921875l0,0.3828125q0,0.3349609375-0.095703125,0.7177734375l0,0.19140625q0,0.1435546875-0.0478515625,0.59814453125t-0.0478515625,0.64599609375q0,0.5263671875,0.19140625,0.5263671875q0-0.0478515625-0.0478515625-0.095703125t-0.0478515625-0.095703125q0-0.3349609375,0.40673828125-0.861328125t0.98095703125-1.12451171875t0.669921875-0.69384765625q1.052734375-1.052734375,3.4453125-3.63671875z M237.8046875,92.439453125l0-0.2392578125q-1.53125,1.5791015625-4.52197265625,4.76123046875t-4.47412109375,4.76123046875q1.0048828125-0.57421875,5.072265625-3.732421875q2.10546875-1.8662109375,3.349609375-2.0576171875q0.861328125-0.1435546875,0.861328125,0.478515625q0,0.9091796875-1.1484375,2.0576171875q-1.5791015625,1.6748046875-4.40234375,3.828125q0.669921875-0.4306640625,3.0146484375-1.626953125q1.72265625-1.2919921875,2.3447265625-1.2919921875l0.19140625,0l0-1.5791015625q0-1.3876953125,0.2392578125-2.3447265625q-0.0478515625-0.3349609375-0.287109375-1.2919921875t-0.2392578125-1.435546875l0-0.287109375z M231.3447265625,92.7265625l0.095703125,0l-0.095703125,0q0,0.0478515625,0.1435546875-0.07177734375t0.31103515625-0.2392578125t0.21533203125-0.11962890625z M228.521484375,93.779296875q-0.4306640625,0.4306640625-1.33984375,1.31591796875t-1.33984375,1.31591796875q1.9140625-1.2919921875,3.349609375-2.2490234375q-0.1435546875-0.0478515625-0.3828125-0.21533203125t-0.287109375-0.16748046875z M229.57421875,95.0712890625q-0.0478515625,0,0.5263671875-0.40673828125t1.1484375-0.78955078125l0.57421875-0.3828125q-0.57421875,0.3828125-2.2490234375,1.5791015625q1.1484375-0.8134765625,4.0673828125-2.296875t4.0673828125-2.201171875q-1.33984375,0.287109375-3.03857421875,1.1962890625t-2.4404296875,1.435546875t-2.65576171875,1.8662109375z M233.78515625,91.2431640625l0.19140625-0.095703125l-0.19140625,0.095703125q1.1962890625-0.57421875,1.2919921875-0.669921875q-0.287109375,0-1.2919921875,0.669921875z M226.9423828125,101.435546875q0.4306640625,0.287109375,0.478515625,0.287109375q0.1435546875,0,0.8134765625-0.669921875q0.3349609375-0.3828125,1.41162109375-1.53125t1.60302734375-1.818359375q3.158203125-3.349609375,4.78515625-4.9765625q-3.25390625,1.7705078125-5.16796875,3.0146484375q-0.4306640625,0.2392578125-1.74658203125,1.052734375t-1.98583984375,1.1962890625l-0.4306640625,0.287109375q-0.478515625,0.287109375-0.93310546875,0.50244140625t-0.69384765625,0.21533203125q-0.287109375,0-0.287109375-0.287109375q0-0.2392578125,0.095703125-0.4306640625q-0.3828125,0.3828125-0.669921875,0.5263671875q1.72265625,1.3876953125,2.7275390625,2.6318359375z M228.712890625,103.8759765625q0.3349609375,0.3349609375,3.94775390625-2.7275390625t4.37841796875-4.115234375q-0.8134765625,0.3349609375-1.60302734375,0.88525390625t-1.84228515625,1.435546875t-1.435546875,1.17236328125q-0.19140625,0.1435546875-1.1005859375,0.861328125t-1.53125,1.07666015625t-1.2919921875,0.55029296875q0.095703125,0.1435546875,0.2392578125,0.4306640625t0.2392578125,0.4306640625z M229.478515625,105.263671875q0.095703125,0.19140625,0.31103515625,0.57421875t0.31103515625,0.57421875q0.765625-1.2919921875,3.3974609375-3.4931640625q-0.095703125,0.0478515625-1.1962890625,0.64599609375t-1.98583984375,1.1005859375t-0.83740234375,0.59814453125z M225.5546875,91.6259765625q-0.0478515625-0.0478515625-0.5263671875,0.59814453125t-1.02880859375,1.36376953125t-0.59814453125,0.765625q0.57421875-0.3349609375,1.5791015625-0.95703125t1.5791015625-0.95703125q-0.8134765625-0.57421875-1.0048828125-0.8134765625z M217.9462890625,90.8603515625q0.4306640625-0.2392578125,1.31591796875-0.78955078125t1.31591796875-0.78955078125q-0.478515625,0.0478515625-0.9091796875,0.26318359375t-1.052734375,0.74169921875t-0.669921875,0.57421875z M216.94140625,88.802734375l-0.478515625,0.287109375q0.095703125-0.095703125,0.478515625-0.287109375q-0.19140625-0.095703125-0.478515625-0.095703125q-0.7177734375,0-1.6748046875,0.95703125q-1.8662109375,1.626953125-3.4453125,2.6318359375q1.0048828125-0.5263671875,2.84716796875-1.7705078125t2.75146484375-1.72265625z M211.4384765625,88.419921875q-0.6220703125,0.2392578125-1.69873046875,1.052734375t-1.41162109375,1.0048828125q0.287109375-0.1435546875,3.541015625-1.9619140625q-0.095703125,0-0.2392578125-0.0478515625t-0.19140625-0.0478515625z M200.384765625,89.47265625q-0.095703125,0.095703125-0.095703125,0.19140625l0.19140625-0.19140625l-0.095703125,0q-0.4306640625,0.478515625-1.33984375,0.57421875t-1.2919921875,0.5263671875q-1.6748046875,1.8662109375-3.0625,2.6318359375q-0.4306640625,0.2392578125-2.2490234375,1.8662109375q-0.1435546875,0.1435546875-1.435546875,1.2919921875t-2.009765625,1.72265625q-0.287109375,0.287109375-0.98095703125,1.1005859375t-1.07666015625,1.1484375q1.435546875-0.7177734375,2.9189453125-1.69873046875t3.3974609375-2.4404296875t2.7275390625-2.03369140625q4.4501953125-2.9189453125,7.84765625-4.9765625q-0.19140625,0.095703125-0.5263671875,0.095703125q-0.3828125,0-0.57421875-0.095703125l-0.19140625,0q-0.19140625,0-0.45458984375,0.095703125t-0.40673828125,0.095703125q-0.478515625-0.095703125-0.7177734375-0.095703125q-0.19140625,0-0.57421875,0.19140625z M190.2880859375,121.533203125l0.095703125,0l-0.095703125,0q0.19140625,0.19140625,0.3828125,0.19140625t0.478515625-0.287109375q0.287109375-0.19140625,0.8134765625-0.7177734375q1.0048828125-0.7177734375,1.8662109375-1.435546875q0.669921875-0.5263671875,1.9140625-1.626953125t1.9140625-1.626953125q2.6318359375-2.1533203125,4.40234375-3.923828125q-7.7041015625,5.359375-11.388671875,7.08203125q-1.1484375,0.57421875-1.8662109375,0.669921875q-0.4306640625,0.0478515625-0.69384765625-0.16748046875t-0.26318359375-0.50244140625q0-0.4306640625,0.3828125-0.8134765625q-0.765625,0.5263671875-0.765625,0.8134765625q0,0.095703125,0.095703125,0.19140625t0.31103515625,0.287109375t0.35888671875,0.3828125q0.4306640625,0.1435546875,1.12451171875,0.74169921875t0.93310546875,0.74169921875z M189.7138671875,123.7822265625l-0.287109375,0.287109375q0.095703125-0.0478515625,0.287109375-0.095703125t0.287109375-0.095703125q-0.095703125-0.095703125-0.287109375-0.095703125z M196.26953125,121.62890625l-0.669921875,0.3828125q0.095703125,0,0.669921875-0.3828125q-1.052734375,0.7177734375-2.6318359375,1.5791015625q0.1435546875,0.095703125,0.4306640625,0t0.6220703125-0.3349609375t0.59814453125-0.4306640625t0.59814453125-0.478515625t0.3828125-0.3349609375z M196.365234375,124.2607421875l0.095703125,0l-0.095703125,0q0.3349609375,0,1.1005859375,0.3828125q0.1435546875-0.19140625,0.4306640625-0.5263671875t0.4306640625-0.5263671875q0.7177734375-0.7177734375,2.2490234375-2.0576171875q1.9619140625-1.72265625,5.5986328125-4.498046875q-6.1728515625,3.63671875-11.29296875,6.8427734375q0.19140625,0.0478515625,0.59814453125,0.21533203125t0.69384765625,0.16748046875l0.19140625,0z M205.45703125,127.083984375l0.1435546875,0l-0.1435546875,0q0.287109375,0,0.8134765625,0.31103515625t0.861328125,0.31103515625q0.19140625,0,0.50244140625-0.19140625t0.7177734375-0.5263671875t0.45458984375-0.3828125q2.775390625-1.9140625,5.5986328125-4.01953125q5.359375-3.923828125,7.2255859375-6.2685546875q-0.19140625-0.095703125-0.57421875-0.095703125q-0.287109375,0-0.57421875,0.19140625t-0.64599609375,0.59814453125t-0.55029296875,0.59814453125q-1.72265625,1.2919921875-4.306640625,2.4404296875q-2.10546875,1.052734375-5.6943359375,3.46923828125t-4.880859375,3.18212890625q0.1435546875,0.0478515625,0.50244140625,0.21533203125t0.55029296875,0.16748046875z M216.17578125,129.572265625l0.095703125,0l-0.095703125,0q0.3349609375,0,0.98095703125,0.2392578125t0.98095703125,0.2392578125q0.3828125,0,0.669921875-0.19140625q0.765625-0.5263671875,2.22509765625-1.60302734375t2.17724609375-1.65087890625q5.1201171875-3.4931640625,8.8046875-6.5556640625q-0.2392578125-0.1435546875-0.98095703125,0.26318359375t-1.65087890625,1.052734375t-1.052734375,0.74169921875q-0.7177734375,0.3828125-4.2109375,2.5361328125q-1.6748046875,0.95703125-4.80908203125,2.775390625t-3.51708984375,2.0576171875q0.19140625,0.095703125,0.3828125,0.095703125z M225.267578125,133.0654296875q2.0576171875,1.052734375,2.0576171875,4.01953125q5.359375-3.3017578125,8.0390625-5.263671875l0.7177734375-0.478515625q0.669921875-0.478515625,1.1962890625-0.861328125t1.17236328125-0.9091796875t0.98095703125-0.95703125t0.2392578125-0.7177734375q-4.40234375,3.0625-8.8046875,5.5029296875q-2.009765625,1.1484375-2.7275390625,1.1484375t-0.7177734375-0.57421875q0-0.861328125,0.8134765625-1.6748046875q0.6220703125-0.765625,1.45947265625-1.60302734375t1.4833984375-1.36376953125t1.74658203125-1.45947265625t1.5791015625-1.36376953125q0.095703125-0.095703125,0.98095703125-0.78955078125t1.55517578125-1.31591796875t0.57421875-0.8134765625q-0.19140625-0.19140625-0.3828125-0.19140625t-0.478515625,0.19140625q-4.0673828125,2.392578125-4.40234375,2.5361328125q-6.603515625,3.8759765625-9.0439453125,5.5986328125q0.2392578125,0.1435546875,0.69384765625,0.3828125t0.765625,0.45458984375t0.50244140625,0.50244140625z M219.6689453125,147.9951171875l-0.095703125,0.095703125l0.095703125-0.095703125q-0.478515625,0.478515625-1.1484375,0.478515625q-0.478515625,0-0.669921875-0.095703125q-1.244140625,1.052734375-1.7705078125,1.3876953125q-1.7705078125,1.3876953125-4.2109375,2.9189453125q0.57421875-0.3349609375,1.79443359375-1.02880859375t1.79443359375-1.02880859375q0.765625-0.3828125,2.56005859375-1.435546875t1.65087890625-1.1962890625z M212.060546875,149.1435546875l-0.3828125,0.287109375q0.095703125,0,0.2392578125-0.11962890625t0.1435546875-0.16748046875q-0.3349609375,0.2392578125-1.2919921875,0.861328125t-1.45947265625,0.95703125t-1.22021484375,0.9091796875t-1.244140625,1.1005859375q2.775390625-1.33984375,6.4599609375-3.732421875q-0.1435546875,0-0.3828125,0.0478515625t-0.3828125,0.0478515625q-0.095703125,0-0.478515625-0.19140625z M205.7919921875,147.181640625q-0.3349609375,0-0.4306640625-0.095703125q0.095703125,0.095703125,0.095703125,0.3828125q0,0.9091796875-1.72265625,4.9287109375q3.158203125-2.3447265625,5.7421875-3.923828125q-0.3828125-0.095703125-0.93310546875-0.3828125t-0.78955078125-0.3828125q-1.4833984375-0.2392578125-1.9619140625-0.5263671875z M202.6337890625,146.224609375q-0.2392578125-0.0478515625-0.64599609375,0.287109375t-0.88525390625,0.93310546875t-0.88525390625,1.17236328125t-0.8134765625,1.17236328125t-0.50244140625,0.74169921875q0.4306640625-0.287109375,1.33984375-0.95703125t1.4833984375-1.07666015625t1.435546875-0.861328125t1.626953125-0.64599609375q-1.1962890625,0-2.1533203125-0.765625z M185.2158203125,148.5693359375q0-0.095703125,0.3349609375-0.3349609375t0.88525390625-0.57421875t1.244140625-0.7177734375t1.435546875-0.765625t1.36376953125-0.7177734375t1.1005859375-0.59814453125t0.57421875-0.31103515625q2.296875-1.1962890625,4.115234375-2.5361328125q0.57421875-0.4306640625,0.57421875-0.57421875q0-0.19140625-0.478515625-0.5263671875q-0.478515625-0.1435546875-2.9189453125,1.4833984375q-0.8134765625,0.5263671875-2.27294921875,1.50732421875t-1.65087890625,1.12451171875q-0.2392578125,0.1435546875-1.07666015625,0.669921875t-1.41162109375,0.9091796875t-1.1484375,0.95703125t-0.669921875,1.0048828125z M190.7666015625,147.0859375l-1.1484375,0.7177734375l1.244140625-0.8134765625l-0.095703125,0.095703125q-0.3349609375,0.19140625-2.1533203125,1.26806640625t-2.8232421875,1.60302734375q-0.57421875,0.3349609375-0.57421875,0.669921875l0,0.478515625l0,0.3828125l0,0.6220703125l0,1.244140625q0.1435546875,0,0.4306640625-0.31103515625t0.6220703125-0.69384765625t0.3828125-0.4306640625q0.19140625-0.19140625,0.55029296875-0.57421875t0.69384765625-0.7177734375t0.6220703125-0.57421875q2.8232421875-2.8232421875,4.306640625-4.2109375q-1.5791015625,0.9091796875-2.0576171875,1.244140625z M199.2841796875,146.033203125l-0.3828125,0.19140625q0.095703125,0,0.3828125-0.19140625q0.2392578125-0.1435546875,0.69384765625-0.45458984375t0.69384765625-0.45458984375q-0.095703125-0.095703125-0.287109375-0.095703125q-1.1962890625,0-4.880859375,2.775390625q0.6220703125-0.287109375,1.8662109375-0.88525390625t1.9140625-0.88525390625z M199.2841796875,144.0712890625q-0.7177734375-0.3349609375-1.53125-1.5791015625q0-0.095703125-0.19140625-0.095703125t-0.57421875,0.3828125t-0.78955078125,0.93310546875t-0.50244140625,0.64599609375q-3.349609375,3.2060546875-6.603515625,6.4599609375q1.6748046875-0.861328125,5.072265625-3.18212890625t5.455078125-3.27783203125q-0.0478515625-0.0478515625-0.16748046875-0.1435546875t-0.16748046875-0.1435546875z M193.5419921875,135.7451171875q-0.0478515625-0.19140625-0.45458984375,0.26318359375t-0.88525390625,1.052734375t-0.5263671875,0.64599609375q-1.6748046875,1.9619140625-5.2158203125,5.8857421875q1.1484375-0.7177734375,3.541015625-2.08154296875t3.541015625-2.03369140625q1.052734375-0.5263671875,1.052734375-0.9091796875l-0.19140625-0.765625q-0.8134765625-1.5791015625-0.861328125-2.0576171875z M184.78515625,143.9755859375l1.0048828125-1.1005859375q-1.0048828125,1.0048828125-1.0048828125,1.1005859375q3.63671875-3.9716796875,6.2685546875-7.08203125q-0.478515625,0.287109375-2.60791015625,1.89013671875t-3.37353515625,2.03369140625q-0.57421875,0.287109375-0.57421875,1.1962890625q0,0.5263671875,0.287109375,1.9619140625z M191.771484375,131.3427734375q-0.1435546875,0.0478515625-0.287109375,0.07177734375t-0.19140625,0.0478515625t-0.11962890625,0.02392578125t-0.095703125,0.07177734375t-0.07177734375,0.1435546875l-0.1435546875,0.21533203125q-0.287109375,0.478515625-0.861328125,1.244140625q-0.765625,0.95703125-3.732421875,4.3544921875q0.95703125-0.57421875,2.9189453125-1.72265625t2.966796875-1.72265625q0.669921875-0.3349609375,0.669921875-0.57421875q0-0.095703125-0.02392578125-0.2392578125t-0.07177734375-0.3828125l-0.095703125-0.478515625q-0.095703125-0.19140625-0.16748046875-0.40673828125t-0.11962890625-0.31103515625t-0.16748046875-0.19140625t-0.40673828125-0.1435546875z M186.9384765625,131.3427734375l-0.095703125,0l0.095703125,0q-0.19140625,0.19140625-0.669921875,0.19140625q-0.5263671875,0-1.3876953125-0.287109375q-0.287109375,0.4306640625-0.287109375,0.95703125l0,0.95703125l0,0.4306640625q1.435546875-0.765625,3.63671875-2.1533203125q-0.8134765625,0-1.2919921875-0.095703125z M186.2685546875,133.783203125l-0.095703125,0.095703125l0.478515625-0.3828125q-0.095703125,0.095703125-0.3828125,0.287109375q-0.861328125,0.4306640625-1.5791015625,0.861328125q0.095703125,0.287109375,0.095703125,1.0048828125q0.095703125,0.57421875,0.095703125,1.9619140625q0.3828125-0.4306640625,1.2919921875-1.41162109375t1.435546875-1.55517578125t1.22021484375-1.45947265625t1.17236328125-1.65087890625q-2.966796875,1.7705078125-3.732421875,2.2490234375z M188.134765625,144.2626953125q-0.1435546875,0.0478515625-0.861328125,0.3828125t-1.1005859375,0.55029296875t-0.78955078125,0.59814453125t-0.40673828125,0.8134765625q0,0.0478515625,0.0478515625,0.19140625t0.0478515625,0.19140625q0.765625-0.57421875,2.3447265625-1.79443359375t2.392578125-1.84228515625q-0.287109375,0.1435546875-0.83740234375,0.45458984375t-0.83740234375,0.45458984375z M196.365234375,150.244140625l0-0.095703125l0,0.095703125q0.19140625,0.0478515625,0.45458984375,0.31103515625t0.40673828125,0.26318359375t0.3349609375-0.19140625q0.287109375-0.3349609375,0.7177734375-0.88525390625t0.5263671875-0.69384765625q1.7705078125-2.2490234375,2.5361328125-3.1103515625q-3.8759765625,2.48828125-5.7421875,3.3017578125q0.5263671875,0.5263671875,0.765625,1.0048828125z M201.8681640625,152.8759765625l-0.095703125,0l0.095703125,0q0.095703125,0.0478515625,0.21533203125,0.095703125t0.16748046875,0.07177734375t0.095703125,0.02392578125l0.287109375-0.57421875q0.095703125-0.19140625,0.2392578125-0.59814453125t0.2392578125-0.59814453125q0.1435546875-0.5263671875,0.55029296875-1.55517578125t0.55029296875-1.45947265625q-0.95703125,0.57421875-2.775390625,1.74658203125t-2.7275390625,1.69873046875q0.7177734375,0.57421875,1.5791015625,0.861328125q0.861328125,0,1.5791015625,0.287109375z M205.265625,154.263671875q0.2392578125,0,0.74169921875,0.19140625t0.74169921875,0.19140625q0.287109375,0.0478515625,0.74169921875-0.16748046875t0.78955078125-0.4306640625t0.83740234375-0.6220703125t0.59814453125-0.45458984375q3.7802734375-2.5361328125,5.263671875-3.63671875q-3.3974609375,2.0576171875-6.7470703125,4.01953125q-0.19140625,0.095703125-0.6220703125,0.35888671875t-0.78955078125,0.4306640625t-0.64599609375,0.21533203125q-0.57421875,0-0.57421875-0.57421875q0-0.7177734375,0.287109375-1.0048828125q0.2392578125-0.3349609375,0.5263671875-0.64599609375t0.669921875-0.6220703125t0.64599609375-0.5263671875t0.765625-0.57421875t0.69384765625-0.478515625t0.765625-0.50244140625l0.7177734375-0.478515625q-0.287109375-0.0478515625-0.8134765625,0.2392578125t-1.0048828125,0.6220703125t-1.07666015625,0.8134765625t-0.74169921875,0.57421875q-0.6220703125,0.3828125-1.72265625,1.17236328125t-1.6748046875,1.17236328125q1.435546875,0.7177734375,1.626953125,0.7177734375z M209.380859375,155.125q0.19140625-0.095703125,1.1005859375-0.095703125q0.95703125,0,1.052734375,0.095703125q1.435546875-1.244140625,2.0576171875-1.6748046875q0.95703125-0.765625,2.79931640625-2.009765625t2.32080078125-1.5791015625q-1.1005859375,0.669921875-3.158203125,1.79443359375t-2.8232421875,1.60302734375q-3.2060546875,1.9140625-3.349609375,1.8662109375z M223.4013671875,154.55078125l0.095703125-0.19140625q-0.19140625,0-0.19140625,0.095703125t0.095703125,0.095703125q0.5263671875-0.669921875,1.1962890625-0.669921875q0.478515625,0,0.669921875,0.19140625q0.287109375,0.287109375,0.478515625,0.287109375q0.0478515625,0,0.8134765625-0.57421875q0.4306640625-0.287109375,0.861328125-0.7177734375q0.669921875-0.2392578125,1.3876953125-0.78955078125t1.55517578125-1.2919921875t1.26806640625-1.02880859375q1.626953125-1.1962890625,4.40234375-3.4453125q0.19140625-0.1435546875,0.7177734375-0.5263671875t0.78955078125-0.59814453125t0.57421875-0.64599609375t0.40673828125-0.861328125q-1.3876953125,0.861328125-4.4501953125,2.36865234375t-4.498046875,2.41650390625q-4.9287109375,3.0625-10.5751953125,6.9384765625q0.3828125,0.0478515625,1.0048828125-0.19140625t0.861328125-0.287109375t0.9091796875-0.40673828125t1.052734375-0.35888671875q0.19140625,0,0.57421875,0.19140625z M229.669921875,152.7802734375l0.19140625-0.19140625q-0.19140625,0.095703125-0.19140625,0.19140625q0.19140625-0.1435546875,0.669921875-0.45458984375t0.69384765625-0.478515625t0.55029296875-0.478515625t0.57421875-0.64599609375q-1.244140625,1.052734375-1.7705078125,1.3876953125q-0.0478515625,0.0478515625-0.26318359375,0.16748046875l-0.4306640625,0.2392578125t-0.21533203125,0.16748046875q0,0.095703125,0.19140625,0.095703125z M236.560546875,147.373046875q-0.1435546875,0.3349609375-2.583984375,1.9619140625l0.7177734375,0q0.1435546875,0,0.95703125-0.57421875q0.57421875-0.478515625,0.9091796875-1.3876953125z M229.669921875,154.837890625l0.287109375-0.287109375l-0.3828125,0.19140625z"/></svg>
